<svg width="512" height="512" viewBox="0 0 512 512" fill="none" xmlns="http://www.w3.org/2000/svg">
<path d="M488.26 62L485.89 64.3804C481.15 71.5215 206.23 416.675 182.53 445.239V447.62C182.53 448.251 182.78 448.856 183.224 449.303C183.669 449.749 184.271 450 184.9 450H331.84C333.673 449.965 335.476 449.519 337.116 448.696C338.756 447.872 340.192 446.691 341.32 445.239C346.06 440.479 445.6 316.699 490.63 257.19C490.803 255.362 491.648 253.665 493 252.429V64.3804C491.723 63.0863 490.057 62.2499 488.26 62ZM19 66.7607C19 64.3804 21.37 64.3804 21.37 62H23.74L28.4799 66.7607C49.8099 92.9448 220.45 307.178 225.19 311.939L227.56 314.319C227.56 316.699 227.56 316.699 225.19 316.699H78.25C75.88 316.699 73.51 314.319 71.14 311.939L66.4 307.178C54.55 290.515 26.11 254.81 23.74 252.429C23.74 250.049 23.74 250.049 21.37 247.669V245.288C19 188.16 19 128.65 19 66.7607Z" fill="url(#paint0_linear)"/>
<defs>
<linearGradient id="paint0_linear" x1="256" y1="62" x2="256" y2="450" gradientUnits="userSpaceOnUse">
<stop stop-color="#60A5FA"/>
<stop offset="1" stop-color="#1E40AF"/>
</linearGradient>
</defs>
</svg>
